solid OpenSCAD_Model
  facet normal 1 -0 0
    outer loop
      vertex 25.5 0 3.12275e-015
      vertex 25.5 64.9 -5
      vertex 25.5 64.9 3.12275e-015
    endloop
  endfacet
  facet normal 1 0 0
    outer loop
      vertex 25.5 64.9 -5
      vertex 25.5 0 3.12275e-015
      vertex 25.5 0 -5
    endloop
  endfacet
  facet normal 0 0 -1
    outer loop
      vertex 25.5 0 -5
      vertex 0.599999 1 -5
      vertex 25.5 64.9 -5
    endloop
  endfacet
  facet normal 0 0 -1
    outer loop
      vertex 25.5 0 -5
      vertex -0.599999 1 -5
      vertex 0.599999 1 -5
    endloop
  endfacet
  facet normal -0 0 -1
    outer loop
      vertex -0.599999 1 -5
      vertex -25.5 0 -5
      vertex -0.599999 63.9 -5
    endloop
  endfacet
  facet normal 0 0 -1
    outer loop
      vertex -25.5 0 -5
      vertex -0.599999 1 -5
      vertex 25.5 0 -5
    endloop
  endfacet
  facet normal 0 0 -1
    outer loop
      vertex 0.599999 63.9 -5
      vertex 25.5 64.9 -5
      vertex 0.599999 1 -5
    endloop
  endfacet
  facet normal 0 0 -1
    outer loop
      vertex -0.599999 63.9 -5
      vertex 25.5 64.9 -5
      vertex 0.599999 63.9 -5
    endloop
  endfacet
  facet normal 0 0 -1
    outer loop
      vertex -0.599999 63.9 -5
      vertex -25.5 64.9 -5
      vertex 25.5 64.9 -5
    endloop
  endfacet
  facet normal 0 0 -1
    outer loop
      vertex -25.5 64.9 -5
      vertex -0.599999 63.9 -5
      vertex -25.5 0 -5
    endloop
  endfacet
  facet normal -1 0 0
    outer loop
      vertex -25.5 0 -5
      vertex -25.5 64.9 -3.12275e-015
      vertex -25.5 64.9 -5
    endloop
  endfacet
  facet normal -1 -0 0
    outer loop
      vertex -25.5 64.9 -3.12275e-015
      vertex -25.5 0 -5
      vertex -25.5 0 -3.12275e-015
    endloop
  endfacet
  facet normal 0 1 -0
    outer loop
      vertex 25.5 64.9 -5
      vertex -25.5 64.9 -3.12275e-015
      vertex 25.5 64.9 3.12275e-015
    endloop
  endfacet
  facet normal 0 1 0
    outer loop
      vertex -25.5 64.9 -3.12275e-015
      vertex 25.5 64.9 -5
      vertex -25.5 64.9 -5
    endloop
  endfacet
  facet normal -1.22461e-016 -1.08081e-023 1
    outer loop
      vertex -25.5 0 -3.12275e-015
      vertex -0.599999 1.53048 -7.34763e-017
      vertex -19.6506 16.65 -2.40642e-015
    endloop
  endfacet
  facet normal -1.22461e-016 0 1
    outer loop
      vertex 25.5 64.9 3.12275e-015
      vertex 19.6506 27.76 2.40642e-015
      vertex 25.5 0 3.12275e-015
    endloop
  endfacet
  facet normal -1.22461e-016 0 1
    outer loop
      vertex 19.589 37.759 2.39888e-015
      vertex 25.5 64.9 3.12275e-015
      vertex 19.589 48.869 2.39888e-015
    endloop
  endfacet
  facet normal -1.22461e-016 -6.18189e-024 1
    outer loop
      vertex 25.5 64.9 3.12275e-015
      vertex 0.5 64.019 6.12303e-017
      vertex 19.589 48.869 2.39888e-015
    endloop
  endfacet
  facet normal -1.22461e-016 0 1
    outer loop
      vertex 25.5 64.9 3.12275e-015
      vertex -0.5 64.019 -6.12303e-017
      vertex 0.5 64.019 6.12303e-017
    endloop
  endfacet
  facet normal -1.22461e-016 0 1
    outer loop
      vertex -25.5 64.9 -3.12275e-015
      vertex -19.589 37.759 -2.39888e-015
      vertex -19.589 48.869 -2.39888e-015
    endloop
  endfacet
  facet normal -1.22461e-016 0 1
    outer loop
      vertex -25.5 0 -3.12275e-015
      vertex -19.6506 27.76 -2.40642e-015
      vertex -25.5 64.9 -3.12275e-015
    endloop
  endfacet
  facet normal -1.22461e-016 7.74195e-024 1
    outer loop
      vertex -19.589 37.759 -2.39888e-015
      vertex -25.5 64.9 -3.12275e-015
      vertex -19.6506 27.76 -2.40642e-015
    endloop
  endfacet
  facet normal -1.22461e-016 6.18189e-024 1
    outer loop
      vertex -0.5 64.019 -6.12303e-017
      vertex -25.5 64.9 -3.12275e-015
      vertex -19.589 48.869 -2.39888e-015
    endloop
  endfacet
  facet normal -1.22461e-016 0 1
    outer loop
      vertex -25.5 64.9 -3.12275e-015
      vertex -0.5 64.019 -6.12303e-017
      vertex 25.5 64.9 3.12275e-015
    endloop
  endfacet
  facet normal -1.22461e-016 0 1
    outer loop
      vertex 19.6506 16.65 2.40642e-015
      vertex 25.5 0 3.12275e-015
      vertex 19.6506 27.76 2.40642e-015
    endloop
  endfacet
  facet normal -1.22461e-016 1.08081e-023 1
    outer loop
      vertex 0.599999 1.53048 7.34763e-017
      vertex 25.5 0 3.12275e-015
      vertex 19.6506 16.65 2.40642e-015
    endloop
  endfacet
  facet normal -1.22461e-016 0 1
    outer loop
      vertex 0.599999 1 7.34763e-017
      vertex 25.5 0 3.12275e-015
      vertex 0.599999 1.53048 7.34763e-017
    endloop
  endfacet
  facet normal -1.22461e-016 5.93244e-023 1
    outer loop
      vertex -0.599999 1 -7.34763e-017
      vertex 25.5 0 3.12275e-015
      vertex 0.599999 1 7.34763e-017
    endloop
  endfacet
  facet normal -1.22461e-016 -1.39587e-024 1
    outer loop
      vertex -0.599999 1 -7.34763e-017
      vertex -25.5 0 -3.12275e-015
      vertex 25.5 0 3.12275e-015
    endloop
  endfacet
  facet normal -1.22461e-016 0 1
    outer loop
      vertex -0.599999 1.53048 -7.34763e-017
      vertex -25.5 0 -3.12275e-015
      vertex -0.599999 1 -7.34763e-017
    endloop
  endfacet
  facet normal -1.22461e-016 0 1
    outer loop
      vertex -19.6506 27.76 -2.40642e-015
      vertex -25.5 0 -3.12275e-015
      vertex -19.6506 16.65 -2.40642e-015
    endloop
  endfacet
  facet normal -1.22461e-016 -7.74195e-024 1
    outer loop
      vertex 25.5 64.9 3.12275e-015
      vertex 19.589 37.759 2.39888e-015
      vertex 19.6506 27.76 2.40642e-015
    endloop
  endfacet
  facet normal -1.22461e-016 1.91977e-023 1
    outer loop
      vertex -0.5 64.019 -6.12303e-017
      vertex 0.500117 63.9 6.12447e-017
      vertex 0.5 64.019 6.12303e-017
    endloop
  endfacet
  facet normal -1.22461e-016 -1.91932e-023 1
    outer loop
      vertex 0.500117 63.9 6.12447e-017
      vertex -0.5 64.019 -6.12303e-017
      vertex -0.500117 63.9 -6.12447e-017
    endloop
  endfacet
  facet normal 0 -1 0
    outer loop
      vertex -25.5 0 -5
      vertex 25.5 0 3.12275e-015
      vertex -25.5 0 -3.12275e-015
    endloop
  endfacet
  facet normal 0 -1 -0
    outer loop
      vertex 25.5 0 3.12275e-015
      vertex -25.5 0 -5
      vertex 25.5 0 -5
    endloop
  endfacet
  facet normal -0.999981 -0.00616047 0
    outer loop
      vertex 19.6506 27.76 -1.5
      vertex 19.589 37.759 2.39888e-015
      vertex 19.589 37.759 -1.5
    endloop
  endfacet
  facet normal -0.999981 -0.00616047 0
    outer loop
      vertex 19.589 37.759 2.39888e-015
      vertex 19.6506 27.76 -1.5
      vertex 19.6506 27.76 2.40642e-015
    endloop
  endfacet
  facet normal -1 0 0
    outer loop
      vertex 19.589 37.759 -1.5
      vertex 19.589 48.869 2.39888e-015
      vertex 19.589 48.869 -1.5
    endloop
  endfacet
  facet normal -1 -0 0
    outer loop
      vertex 19.589 48.869 2.39888e-015
      vertex 19.589 37.759 -1.5
      vertex 19.589 37.759 2.39888e-015
    endloop
  endfacet
  facet normal -0.621658 -0.783289 0
    outer loop
      vertex 0.5 64.019 -1.5
      vertex 19.589 48.869 2.39888e-015
      vertex 0.5 64.019 6.12303e-017
    endloop
  endfacet
  facet normal -0.621658 -0.783289 -0
    outer loop
      vertex 19.589 48.869 2.39888e-015
      vertex 0.5 64.019 -1.5
      vertex 19.589 48.869 -1.5
    endloop
  endfacet
  facet normal 1 0.000985265 0
    outer loop
      vertex 0.500117 63.9 6.12447e-017
      vertex 0.5 64.019 -1.5
      vertex 0.5 64.019 6.12303e-017
    endloop
  endfacet
  facet normal 1 0.000985265 0
    outer loop
      vertex 0.5 64.019 -1.5
      vertex 0.500117 63.9 6.12447e-017
      vertex 0.500117 63.9 -1.5
    endloop
  endfacet
  facet normal -0.621658 0.783289 0
    outer loop
      vertex 19.6506 16.65 -1.5
      vertex 0.599999 1.53048 7.34763e-017
      vertex 19.6506 16.65 2.40642e-015
    endloop
  endfacet
  facet normal -0.621658 0.783289 0
    outer loop
      vertex 0.599999 1.53048 7.34763e-017
      vertex 19.6506 16.65 -1.5
      vertex 0.599999 1.53048 -1.5
    endloop
  endfacet
  facet normal -1 0 0
    outer loop
      vertex 19.6506 16.65 -1.5
      vertex 19.6506 27.76 2.40642e-015
      vertex 19.6506 27.76 -1.5
    endloop
  endfacet
  facet normal -1 -0 0
    outer loop
      vertex 19.6506 27.76 2.40642e-015
      vertex 19.6506 16.65 -1.5
      vertex 19.6506 16.65 2.40642e-015
    endloop
  endfacet
  facet normal 0 0 1
    outer loop
      vertex 19.589 48.869 -1.5
      vertex 0.599999 63.9 -1.5
      vertex 19.589 37.759 -1.5
    endloop
  endfacet
  facet normal 0 0 1
    outer loop
      vertex 0.599999 63.9 -1.5
      vertex 0.5 64.019 -1.5
      vertex 0.500117 63.9 -1.5
    endloop
  endfacet
  facet normal 0 0 1
    outer loop
      vertex 0.5 64.019 -1.5
      vertex 0.599999 63.9 -1.5
      vertex 19.589 48.869 -1.5
    endloop
  endfacet
  facet normal 0 0 1
    outer loop
      vertex 0.599999 1.53048 -1.5
      vertex 19.6506 27.76 -1.5
      vertex 19.589 37.759 -1.5
    endloop
  endfacet
  facet normal 0 0 1
    outer loop
      vertex 0.599999 1.53048 -1.5
      vertex 19.589 37.759 -1.5
      vertex 0.599999 63.9 -1.5
    endloop
  endfacet
  facet normal 0 0 1
    outer loop
      vertex 19.6506 27.76 -1.5
      vertex 0.599999 1.53048 -1.5
      vertex 19.6506 16.65 -1.5
    endloop
  endfacet
  facet normal 0.999981 -0.00616047 1.27154e-006
    outer loop
      vertex -19.6506 27.76 -2.40642e-015
      vertex -19.589 37.759 -1.5
      vertex -19.589 37.759 -2.39888e-015
    endloop
  endfacet
  facet normal 0.999981 -0.00616047 1.27154e-006
    outer loop
      vertex -19.589 37.759 -1.5
      vertex -19.6506 27.76 -2.40642e-015
      vertex -19.6506 27.76 -1.5
    endloop
  endfacet
  facet normal 1 -0 1.27157e-006
    outer loop
      vertex -19.589 37.759 -2.39888e-015
      vertex -19.589 48.869 -1.5
      vertex -19.589 48.869 -2.39888e-015
    endloop
  endfacet
  facet normal 1 0 1.27157e-006
    outer loop
      vertex -19.589 48.869 -1.5
      vertex -19.589 37.759 -2.39888e-015
      vertex -19.589 37.759 -1.5
    endloop
  endfacet
  facet normal 0.621658 -0.783289 7.90479e-007
    outer loop
      vertex -19.589 48.869 -1.5
      vertex -0.5 64.019 -6.12303e-017
      vertex -19.589 48.869 -2.39888e-015
    endloop
  endfacet
  facet normal 0.621658 -0.783289 0
    outer loop
      vertex -0.5 64.019 -6.12303e-017
      vertex -19.589 48.869 -1.5
      vertex -0.5 64.019 -1.5
    endloop
  endfacet
  facet normal -1 0.000985265 0
    outer loop
      vertex -0.500117 63.9 -1.5
      vertex -0.5 64.019 -6.12303e-017
      vertex -0.5 64.019 -1.5
    endloop
  endfacet
  facet normal -1 0.000985265 0
    outer loop
      vertex -0.5 64.019 -6.12303e-017
      vertex -0.500117 63.9 -1.5
      vertex -0.500117 63.9 -6.12447e-017
    endloop
  endfacet
  facet normal 0.621658 0.783289 -0
    outer loop
      vertex -0.599999 1.53048 -1.5
      vertex -19.6506 16.65 -2.40642e-015
      vertex -0.599999 1.53048 -7.34763e-017
    endloop
  endfacet
  facet normal 0.621658 0.783289 7.90479e-007
    outer loop
      vertex -19.6506 16.65 -2.40642e-015
      vertex -0.599999 1.53048 -1.5
      vertex -19.6506 16.65 -1.5
    endloop
  endfacet
  facet normal 1 -0 1.27157e-006
    outer loop
      vertex -19.6506 16.65 -2.40642e-015
      vertex -19.6506 27.76 -1.5
      vertex -19.6506 27.76 -2.40642e-015
    endloop
  endfacet
  facet normal 1 0 1.27157e-006
    outer loop
      vertex -19.6506 27.76 -1.5
      vertex -19.6506 16.65 -2.40642e-015
      vertex -19.6506 16.65 -1.5
    endloop
  endfacet
  facet normal 0 0 1
    outer loop
      vertex -0.5 64.019 -1.5
      vertex -0.599999 63.9 -1.5
      vertex -0.500117 63.9 -1.5
    endloop
  endfacet
  facet normal 0 0 1
    outer loop
      vertex -19.589 48.869 -1.5
      vertex -0.599999 63.9 -1.5
      vertex -0.5 64.019 -1.5
    endloop
  endfacet
  facet normal 0 0 1
    outer loop
      vertex -19.589 37.759 -1.5
      vertex -0.599999 63.9 -1.5
      vertex -19.589 48.869 -1.5
    endloop
  endfacet
  facet normal 0 0 1
    outer loop
      vertex -0.599999 63.9 -1.5
      vertex -19.589 37.759 -1.5
      vertex -0.599999 1.53048 -1.5
    endloop
  endfacet
  facet normal -0 0 1
    outer loop
      vertex -19.6506 27.76 -1.5
      vertex -0.599999 1.53048 -1.5
      vertex -19.589 37.759 -1.5
    endloop
  endfacet
  facet normal 0 0 1
    outer loop
      vertex -0.599999 1.53048 -1.5
      vertex -19.6506 27.76 -1.5
      vertex -19.6506 16.65 -1.5
    endloop
  endfacet
  facet normal -1 0 0
    outer loop
      vertex 0.599999 63.9 -5
      vertex 0.599999 1.53048 -1.5
      vertex 0.599999 63.9 -1.5
    endloop
  endfacet
  facet normal -1 0 0
    outer loop
      vertex 0.599999 1 -5
      vertex 0.599999 1.53048 -1.5
      vertex 0.599999 63.9 -5
    endloop
  endfacet
  facet normal -1 0 0
    outer loop
      vertex 0.599999 1 7.34763e-017
      vertex 0.599999 1.53048 -1.5
      vertex 0.599999 1 -5
    endloop
  endfacet
  facet normal -1 0 0
    outer loop
      vertex 0.599999 1.53048 -1.5
      vertex 0.599999 1 7.34763e-017
      vertex 0.599999 1.53048 7.34763e-017
    endloop
  endfacet
  facet normal 1 0 0
    outer loop
      vertex -0.599999 1.53048 -7.34763e-017
      vertex -0.599999 1 -7.34763e-017
      vertex -0.599999 1.53048 -1.5
    endloop
  endfacet
  facet normal 1 -0 0
    outer loop
      vertex -0.599999 1.53048 -1.5
      vertex -0.599999 63.9 -5
      vertex -0.599999 63.9 -1.5
    endloop
  endfacet
  facet normal 1 0 0
    outer loop
      vertex -0.599999 1.53048 -1.5
      vertex -0.599999 1 -5
      vertex -0.599999 63.9 -5
    endloop
  endfacet
  facet normal 1 0 0
    outer loop
      vertex -0.599999 1 -5
      vertex -0.599999 1.53048 -1.5
      vertex -0.599999 1 -7.34763e-017
    endloop
  endfacet
  facet normal 0 -1 0
    outer loop
      vertex -0.599999 63.9 -5
      vertex -0.500117 63.9 -1.5
      vertex -0.599999 63.9 -1.5
    endloop
  endfacet
  facet normal 0 -1 -0
    outer loop
      vertex -0.500117 63.9 -1.5
      vertex -0.599999 63.9 -5
      vertex 0.500117 63.9 -1.5
    endloop
  endfacet
  facet normal 0 -1 0
    outer loop
      vertex 0.599999 63.9 -5
      vertex 0.500117 63.9 -1.5
      vertex -0.599999 63.9 -5
    endloop
  endfacet
  facet normal 0 -1 0
    outer loop
      vertex 0.500117 63.9 -1.5
      vertex 0.599999 63.9 -5
      vertex 0.599999 63.9 -1.5
    endloop
  endfacet
  facet normal 0 -1 0
    outer loop
      vertex -0.500117 63.9 -1.5
      vertex 0.500117 63.9 6.12447e-017
      vertex -0.500117 63.9 -6.12447e-017
    endloop
  endfacet
  facet normal 0 -1 -0
    outer loop
      vertex 0.500117 63.9 6.12447e-017
      vertex -0.500117 63.9 -1.5
      vertex 0.500117 63.9 -1.5
    endloop
  endfacet
  facet normal 0 1 -0
    outer loop
      vertex 0.599999 1 -5
      vertex -0.599999 1 -7.34763e-017
      vertex 0.599999 1 7.34763e-017
    endloop
  endfacet
  facet normal 0 1 0
    outer loop
      vertex -0.599999 1 -7.34763e-017
      vertex 0.599999 1 -5
      vertex -0.599999 1 -5
    endloop
  endfacet
endsolid OpenSCAD_Model
