solid OpenSCAD_Model
  facet normal 1 -0 0
    outer loop
      vertex 25.5 -32.45 3.3
      vertex 25.5 32.45 1.3
      vertex 25.5 32.45 3.3
    endloop
  endfacet
  facet normal 1 0 0
    outer loop
      vertex 25.5 32.45 1.3
      vertex 25.5 -32.45 3.3
      vertex 25.5 -32.45 1.3
    endloop
  endfacet
  facet normal 0 0 -1
    outer loop
      vertex 25.5 -32.45 1.3
      vertex 0.599999 -31.45 1.3
      vertex 25.5 32.45 1.3
    endloop
  endfacet
  facet normal 0 0 -1
    outer loop
      vertex 25.5 -32.45 1.3
      vertex -0.599999 -31.45 1.3
      vertex 0.599999 -31.45 1.3
    endloop
  endfacet
  facet normal -0 0 -1
    outer loop
      vertex -0.599999 -31.45 1.3
      vertex -25.5 -32.45 1.3
      vertex -0.599999 31.45 1.3
    endloop
  endfacet
  facet normal 0 0 -1
    outer loop
      vertex -25.5 -32.45 1.3
      vertex -0.599999 -31.45 1.3
      vertex 25.5 -32.45 1.3
    endloop
  endfacet
  facet normal 0 0 -1
    outer loop
      vertex 0.599999 31.45 1.3
      vertex 25.5 32.45 1.3
      vertex 0.599999 -31.45 1.3
    endloop
  endfacet
  facet normal 0 0 -1
    outer loop
      vertex -0.599999 31.45 1.3
      vertex 25.5 32.45 1.3
      vertex 0.599999 31.45 1.3
    endloop
  endfacet
  facet normal 0 0 -1
    outer loop
      vertex -0.599999 31.45 1.3
      vertex -25.5 32.45 1.3
      vertex 25.5 32.45 1.3
    endloop
  endfacet
  facet normal 0 0 -1
    outer loop
      vertex -25.5 32.45 1.3
      vertex -0.599999 31.45 1.3
      vertex -25.5 -32.45 1.3
    endloop
  endfacet
  facet normal -1 0 0
    outer loop
      vertex -25.5 -32.45 1.3
      vertex -25.5 32.45 3.3
      vertex -25.5 32.45 1.3
    endloop
  endfacet
  facet normal -1 -0 0
    outer loop
      vertex -25.5 32.45 3.3
      vertex -25.5 -32.45 1.3
      vertex -25.5 -32.45 3.3
    endloop
  endfacet
  facet normal 0 1 -0
    outer loop
      vertex 25.5 32.45 1.3
      vertex -25.5 32.45 3.3
      vertex 25.5 32.45 3.3
    endloop
  endfacet
  facet normal 0 1 0
    outer loop
      vertex -25.5 32.45 3.3
      vertex 25.5 32.45 1.3
      vertex -25.5 32.45 1.3
    endloop
  endfacet
  facet normal 0 0 1
    outer loop
      vertex -25.5 -32.45 3.3
      vertex -0.599999 -30.9195 3.3
      vertex -19.6506 -15.8 3.3
    endloop
  endfacet
  facet normal 0 0 1
    outer loop
      vertex 25.5 32.45 3.3
      vertex 19.6506 -4.69 3.3
      vertex 25.5 -32.45 3.3
    endloop
  endfacet
  facet normal 0 0 1
    outer loop
      vertex 19.589 5.309 3.3
      vertex 25.5 32.45 3.3
      vertex 19.589 16.419 3.3
    endloop
  endfacet
  facet normal 0 0 1
    outer loop
      vertex 25.5 32.45 3.3
      vertex 0.5 31.569 3.3
      vertex 19.589 16.419 3.3
    endloop
  endfacet
  facet normal 0 0 1
    outer loop
      vertex 25.5 32.45 3.3
      vertex -0.5 31.569 3.3
      vertex 0.5 31.569 3.3
    endloop
  endfacet
  facet normal 0 0 1
    outer loop
      vertex -25.5 32.45 3.3
      vertex -19.589 5.309 3.3
      vertex -19.589 16.419 3.3
    endloop
  endfacet
  facet normal 0 0 1
    outer loop
      vertex -25.5 -32.45 3.3
      vertex -19.6506 -4.69 3.3
      vertex -25.5 32.45 3.3
    endloop
  endfacet
  facet normal 0 0 1
    outer loop
      vertex -19.589 5.309 3.3
      vertex -25.5 32.45 3.3
      vertex -19.6506 -4.69 3.3
    endloop
  endfacet
  facet normal 0 0 1
    outer loop
      vertex -0.5 31.569 3.3
      vertex -25.5 32.45 3.3
      vertex -19.589 16.419 3.3
    endloop
  endfacet
  facet normal -0 0 1
    outer loop
      vertex -25.5 32.45 3.3
      vertex -0.5 31.569 3.3
      vertex 25.5 32.45 3.3
    endloop
  endfacet
  facet normal -0 0 1
    outer loop
      vertex 19.6506 -15.8 3.3
      vertex 25.5 -32.45 3.3
      vertex 19.6506 -4.69 3.3
    endloop
  endfacet
  facet normal -0 0 1
    outer loop
      vertex 0.599999 -30.9195 3.3
      vertex 25.5 -32.45 3.3
      vertex 19.6506 -15.8 3.3
    endloop
  endfacet
  facet normal -0 0 1
    outer loop
      vertex 0.599999 -31.45 3.3
      vertex 25.5 -32.45 3.3
      vertex 0.599999 -30.9195 3.3
    endloop
  endfacet
  facet normal -0 0 1
    outer loop
      vertex -0.599999 -31.45 3.3
      vertex 25.5 -32.45 3.3
      vertex 0.599999 -31.45 3.3
    endloop
  endfacet
  facet normal 0 0 1
    outer loop
      vertex -0.599999 -31.45 3.3
      vertex -25.5 -32.45 3.3
      vertex 25.5 -32.45 3.3
    endloop
  endfacet
  facet normal 0 0 1
    outer loop
      vertex -0.599999 -30.9195 3.3
      vertex -25.5 -32.45 3.3
      vertex -0.599999 -31.45 3.3
    endloop
  endfacet
  facet normal 0 0 1
    outer loop
      vertex -19.6506 -4.69 3.3
      vertex -25.5 -32.45 3.3
      vertex -19.6506 -15.8 3.3
    endloop
  endfacet
  facet normal 0 0 1
    outer loop
      vertex 25.5 32.45 3.3
      vertex 19.589 5.309 3.3
      vertex 19.6506 -4.69 3.3
    endloop
  endfacet
  facet normal -0 0 1
    outer loop
      vertex -0.5 31.569 3.3
      vertex 0.500117 31.45 3.3
      vertex 0.5 31.569 3.3
    endloop
  endfacet
  facet normal 0 0 1
    outer loop
      vertex 0.500117 31.45 3.3
      vertex -0.5 31.569 3.3
      vertex -0.500117 31.45 3.3
    endloop
  endfacet
  facet normal 0 -1 0
    outer loop
      vertex -25.5 -32.45 1.3
      vertex 25.5 -32.45 3.3
      vertex -25.5 -32.45 3.3
    endloop
  endfacet
  facet normal 0 -1 -0
    outer loop
      vertex 25.5 -32.45 3.3
      vertex -25.5 -32.45 1.3
      vertex 25.5 -32.45 1.3
    endloop
  endfacet
  facet normal -0.999981 -0.00616047 0
    outer loop
      vertex 19.6506 -4.69 1.8
      vertex 19.589 5.309 3.3
      vertex 19.589 5.309 1.8
    endloop
  endfacet
  facet normal -0.999981 -0.00616047 0
    outer loop
      vertex 19.589 5.309 3.3
      vertex 19.6506 -4.69 1.8
      vertex 19.6506 -4.69 3.3
    endloop
  endfacet
  facet normal -1 0 0
    outer loop
      vertex 19.589 5.309 1.8
      vertex 19.589 16.419 3.3
      vertex 19.589 16.419 1.8
    endloop
  endfacet
  facet normal -1 -0 0
    outer loop
      vertex 19.589 16.419 3.3
      vertex 19.589 5.309 1.8
      vertex 19.589 5.309 3.3
    endloop
  endfacet
  facet normal -0.621658 -0.783289 0
    outer loop
      vertex 0.5 31.569 1.8
      vertex 19.589 16.419 3.3
      vertex 0.5 31.569 3.3
    endloop
  endfacet
  facet normal -0.621658 -0.783289 -0
    outer loop
      vertex 19.589 16.419 3.3
      vertex 0.5 31.569 1.8
      vertex 19.589 16.419 1.8
    endloop
  endfacet
  facet normal 1 0.000985234 0
    outer loop
      vertex 0.500117 31.45 3.3
      vertex 0.5 31.569 1.8
      vertex 0.5 31.569 3.3
    endloop
  endfacet
  facet normal 1 0.000985234 0
    outer loop
      vertex 0.5 31.569 1.8
      vertex 0.500117 31.45 3.3
      vertex 0.500117 31.45 1.8
    endloop
  endfacet
  facet normal -0.621658 0.783289 0
    outer loop
      vertex 19.6506 -15.8 1.8
      vertex 0.599999 -30.9195 3.3
      vertex 19.6506 -15.8 3.3
    endloop
  endfacet
  facet normal -0.621658 0.783289 0
    outer loop
      vertex 0.599999 -30.9195 3.3
      vertex 19.6506 -15.8 1.8
      vertex 0.599999 -30.9195 1.8
    endloop
  endfacet
  facet normal -1 0 0
    outer loop
      vertex 19.6506 -15.8 1.8
      vertex 19.6506 -4.69 3.3
      vertex 19.6506 -4.69 1.8
    endloop
  endfacet
  facet normal -1 -0 0
    outer loop
      vertex 19.6506 -4.69 3.3
      vertex 19.6506 -15.8 1.8
      vertex 19.6506 -15.8 3.3
    endloop
  endfacet
  facet normal 0 0 1
    outer loop
      vertex 19.589 16.419 1.8
      vertex 0.599999 31.45 1.8
      vertex 19.589 5.309 1.8
    endloop
  endfacet
  facet normal 0 0 1
    outer loop
      vertex 0.599999 31.45 1.8
      vertex 0.5 31.569 1.8
      vertex 0.500117 31.45 1.8
    endloop
  endfacet
  facet normal 0 0 1
    outer loop
      vertex 0.5 31.569 1.8
      vertex 0.599999 31.45 1.8
      vertex 19.589 16.419 1.8
    endloop
  endfacet
  facet normal 0 0 1
    outer loop
      vertex 0.599999 -30.9195 1.8
      vertex 19.6506 -4.69 1.8
      vertex 19.589 5.309 1.8
    endloop
  endfacet
  facet normal 0 0 1
    outer loop
      vertex 0.599999 -30.9195 1.8
      vertex 19.589 5.309 1.8
      vertex 0.599999 31.45 1.8
    endloop
  endfacet
  facet normal 0 0 1
    outer loop
      vertex 19.6506 -4.69 1.8
      vertex 0.599999 -30.9195 1.8
      vertex 19.6506 -15.8 1.8
    endloop
  endfacet
  facet normal 0.999981 -0.00616047 0
    outer loop
      vertex -19.6506 -4.69 3.3
      vertex -19.589 5.309 1.8
      vertex -19.589 5.309 3.3
    endloop
  endfacet
  facet normal 0.999981 -0.00616047 0
    outer loop
      vertex -19.589 5.309 1.8
      vertex -19.6506 -4.69 3.3
      vertex -19.6506 -4.69 1.8
    endloop
  endfacet
  facet normal 1 -0 0
    outer loop
      vertex -19.589 5.309 3.3
      vertex -19.589 16.419 1.8
      vertex -19.589 16.419 3.3
    endloop
  endfacet
  facet normal 1 0 0
    outer loop
      vertex -19.589 16.419 1.8
      vertex -19.589 5.309 3.3
      vertex -19.589 5.309 1.8
    endloop
  endfacet
  facet normal 0.621658 -0.783289 0
    outer loop
      vertex -19.589 16.419 1.8
      vertex -0.5 31.569 3.3
      vertex -19.589 16.419 3.3
    endloop
  endfacet
  facet normal 0.621658 -0.783289 0
    outer loop
      vertex -0.5 31.569 3.3
      vertex -19.589 16.419 1.8
      vertex -0.5 31.569 1.8
    endloop
  endfacet
  facet normal -1 0.000985234 0
    outer loop
      vertex -0.500117 31.45 1.8
      vertex -0.5 31.569 3.3
      vertex -0.5 31.569 1.8
    endloop
  endfacet
  facet normal -1 0.000985234 0
    outer loop
      vertex -0.5 31.569 3.3
      vertex -0.500117 31.45 1.8
      vertex -0.500117 31.45 3.3
    endloop
  endfacet
  facet normal 0.621658 0.783289 -0
    outer loop
      vertex -0.599999 -30.9195 1.8
      vertex -19.6506 -15.8 3.3
      vertex -0.599999 -30.9195 3.3
    endloop
  endfacet
  facet normal 0.621658 0.783289 0
    outer loop
      vertex -19.6506 -15.8 3.3
      vertex -0.599999 -30.9195 1.8
      vertex -19.6506 -15.8 1.8
    endloop
  endfacet
  facet normal 1 -0 0
    outer loop
      vertex -19.6506 -15.8 3.3
      vertex -19.6506 -4.69 1.8
      vertex -19.6506 -4.69 3.3
    endloop
  endfacet
  facet normal 1 0 0
    outer loop
      vertex -19.6506 -4.69 1.8
      vertex -19.6506 -15.8 3.3
      vertex -19.6506 -15.8 1.8
    endloop
  endfacet
  facet normal 0 0 1
    outer loop
      vertex -0.5 31.569 1.8
      vertex -0.599999 31.45 1.8
      vertex -0.500117 31.45 1.8
    endloop
  endfacet
  facet normal 0 0 1
    outer loop
      vertex -19.589 16.419 1.8
      vertex -0.599999 31.45 1.8
      vertex -0.5 31.569 1.8
    endloop
  endfacet
  facet normal 0 0 1
    outer loop
      vertex -19.589 5.309 1.8
      vertex -0.599999 31.45 1.8
      vertex -19.589 16.419 1.8
    endloop
  endfacet
  facet normal 0 0 1
    outer loop
      vertex -0.599999 31.45 1.8
      vertex -19.589 5.309 1.8
      vertex -0.599999 -30.9195 1.8
    endloop
  endfacet
  facet normal -0 0 1
    outer loop
      vertex -19.6506 -4.69 1.8
      vertex -0.599999 -30.9195 1.8
      vertex -19.589 5.309 1.8
    endloop
  endfacet
  facet normal 0 0 1
    outer loop
      vertex -0.599999 -30.9195 1.8
      vertex -19.6506 -4.69 1.8
      vertex -19.6506 -15.8 1.8
    endloop
  endfacet
  facet normal -1 0 0
    outer loop
      vertex 0.599999 31.45 1.3
      vertex 0.599999 -30.9195 1.8
      vertex 0.599999 31.45 1.8
    endloop
  endfacet
  facet normal -1 0 0
    outer loop
      vertex 0.599999 -31.45 1.3
      vertex 0.599999 -30.9195 1.8
      vertex 0.599999 31.45 1.3
    endloop
  endfacet
  facet normal -1 0 0
    outer loop
      vertex 0.599999 -31.45 3.3
      vertex 0.599999 -30.9195 1.8
      vertex 0.599999 -31.45 1.3
    endloop
  endfacet
  facet normal -1 0 0
    outer loop
      vertex 0.599999 -30.9195 1.8
      vertex 0.599999 -31.45 3.3
      vertex 0.599999 -30.9195 3.3
    endloop
  endfacet
  facet normal 1 0 0
    outer loop
      vertex -0.599999 -30.9195 3.3
      vertex -0.599999 -31.45 3.3
      vertex -0.599999 -30.9195 1.8
    endloop
  endfacet
  facet normal 1 -0 0
    outer loop
      vertex -0.599999 -30.9195 1.8
      vertex -0.599999 31.45 1.3
      vertex -0.599999 31.45 1.8
    endloop
  endfacet
  facet normal 1 0 0
    outer loop
      vertex -0.599999 -30.9195 1.8
      vertex -0.599999 -31.45 1.3
      vertex -0.599999 31.45 1.3
    endloop
  endfacet
  facet normal 1 0 0
    outer loop
      vertex -0.599999 -31.45 1.3
      vertex -0.599999 -30.9195 1.8
      vertex -0.599999 -31.45 3.3
    endloop
  endfacet
  facet normal 0 1 -0
    outer loop
      vertex 0.599999 -31.45 1.3
      vertex -0.599999 -31.45 3.3
      vertex 0.599999 -31.45 3.3
    endloop
  endfacet
  facet normal 0 1 0
    outer loop
      vertex -0.599999 -31.45 3.3
      vertex 0.599999 -31.45 1.3
      vertex -0.599999 -31.45 1.3
    endloop
  endfacet
  facet normal 0 -1 0
    outer loop
      vertex -0.599999 31.45 1.3
      vertex -0.500117 31.45 1.8
      vertex -0.599999 31.45 1.8
    endloop
  endfacet
  facet normal 0 -1 -0
    outer loop
      vertex -0.500117 31.45 1.8
      vertex -0.599999 31.45 1.3
      vertex 0.500117 31.45 1.8
    endloop
  endfacet
  facet normal 0 -1 0
    outer loop
      vertex 0.599999 31.45 1.3
      vertex 0.500117 31.45 1.8
      vertex -0.599999 31.45 1.3
    endloop
  endfacet
  facet normal 0 -1 0
    outer loop
      vertex 0.500117 31.45 1.8
      vertex 0.599999 31.45 1.3
      vertex 0.599999 31.45 1.8
    endloop
  endfacet
  facet normal 0 -1 0
    outer loop
      vertex -0.500117 31.45 1.8
      vertex 0.500117 31.45 3.3
      vertex -0.500117 31.45 3.3
    endloop
  endfacet
  facet normal 0 -1 -0
    outer loop
      vertex 0.500117 31.45 3.3
      vertex -0.500117 31.45 1.8
      vertex 0.500117 31.45 1.8
    endloop
  endfacet
endsolid OpenSCAD_Model
